<svg width="94" height="80" viewBox="0 0 94 80" fill="none" xmlns="http://www.w3.org/2000/svg">
<path d="M54.0943 8.82407C53.5513 7.60244 51.6316 7.98057 50.7138 8.95173C49.9349 9.77746 49.4647 10.8391 48.8409 11.7877C48.2172 12.7362 47.3381 13.6282 46.2135 13.7849C45.0888 13.9417 43.8041 13.0012 43.9916 11.8814C44.1322 11.0476 44.9563 10.5175 45.7432 10.2057C46.5302 9.89381 47.4028 9.66112 47.957 9.02283C48.5113 8.38455 48.4612 7.15645 47.6532 6.90599C47.1523 6.75086 46.6304 7.03526 46.1811 7.30835C43.4955 8.9485 40.8115 10.587 38.1258 12.2272C34.7502 9.6288 41.7826 7.56043 41.5742 6.26124C41.3625 4.94427 37.3954 6.49878 36.6957 6.86721C33.6659 8.46211 30.9689 11.4241 28.4449 13.7122C25.5686 16.3203 22.7779 19.0253 20.0825 21.8192C17.1416 24.8685 14.3121 28.0243 11.6039 31.282C10.1463 33.0337 8.69684 34.8613 7.96483 37.0185C7.23282 39.1757 7.34109 41.7531 8.79702 43.5048C10.3838 45.4132 13.2052 45.9028 15.6259 45.3501C17.3791 44.9494 18.974 44.0978 20.5043 43.1331C22.0346 42.6693 23.4986 41.9002 24.822 40.9969C19.4297 55.3639 10.8993 68.5433 0 79.3457C15.4255 69.348 28.9765 56.4692 39.7482 41.5737C41.0813 39.73 42.4387 37.5582 41.9474 35.3363C41.9281 35.2491 41.9038 35.165 41.878 35.081C42.2092 33.5992 42.1187 32.1126 41.0587 31.1075C39.9841 30.0878 38.3456 30.0345 36.8638 30.0426C33.3799 30.0588 29.833 30.0895 26.3717 30.4999C35.0976 24.2172 43.8235 17.9346 52.5494 11.6503C53.4996 10.9684 54.5677 9.89057 54.0943 8.82407Z" fill="white"/>
<path d="M40.9936 31.8428C41.3604 31.8428 41.682 32.09 41.7741 32.4455L42.8794 36.6937C43.1557 37.7586 43.4127 38.7443 43.5888 39.7316H43.6486C43.8651 38.7653 44.1818 37.7392 44.4969 36.7147L45.8753 32.4035C45.982 32.069 46.2922 31.8428 46.6429 31.8428H46.9192C47.2731 31.8428 47.5849 32.0722 47.69 32.41L48.994 36.6162C49.3495 37.7602 49.6258 38.7653 49.8424 39.7316H49.9022C50.0605 38.7653 50.3158 37.7586 50.6325 36.6356L51.8267 32.4294C51.9253 32.0819 52.242 31.8428 52.6023 31.8428C53.1485 31.8428 53.5379 32.376 53.3699 32.8963L50.8135 40.8305C50.7069 41.1633 50.3966 41.3896 50.046 41.3896H49.6436C49.2929 41.3896 48.9827 41.1634 48.876 40.8289L47.5962 36.8327C47.2618 35.7678 46.9854 34.8209 46.7479 33.6962H46.7091C46.4732 34.8403 46.1759 35.826 45.8414 36.8521L44.4888 40.8418C44.3774 41.1682 44.0703 41.3896 43.7261 41.3896H43.3254C42.9699 41.3896 42.6564 41.1569 42.553 40.8159L32.3776 37.9558C32.2079 37.4047 40.42 31.8428 40.9936 31.8428Z" fill="white"/>
<path d="M53.4896 29.629C53.509 30.2204 53.076 30.6938 52.3844 30.6938C51.7735 30.6938 51.3389 30.2204 51.3389 29.629C51.3389 29.0181 51.7929 28.5447 52.4231 28.5447C53.076 28.5447 53.4896 29.0181 53.4896 29.629Z" fill="white"/>
<path d="M53.2563 40.6689L51.852 32.9853C51.7664 32.5134 52.0783 32.0626 52.5501 31.9753C53.022 31.8897 53.4728 32.2016 53.5601 32.6734L54.9643 40.3571C55.0499 40.8289 54.7381 41.2797 54.2662 41.367C53.7944 41.4527 53.3419 41.1392 53.2563 40.6689Z" fill="white"/>
<path d="M54.8311 40.7124V33.3955C54.8311 33.1451 54.6275 32.9415 54.377 32.9415H53.9424C53.6919 32.9415 53.4883 32.7379 53.4883 32.4874V32.0737C53.4883 31.8233 53.6919 31.6197 53.9424 31.6197H54.377C54.6275 31.6197 54.8311 31.4161 54.8311 31.1656C54.8311 29.8244 55.1268 28.6011 55.9348 27.832C56.586 27.2001 57.4537 26.9448 58.2617 26.9448C58.6689 26.9448 59.0405 27.0062 59.3427 27.087C59.5706 27.1484 59.7144 27.373 59.6724 27.6041L59.5948 28.0469C59.5496 28.3006 59.3039 28.467 59.0535 28.4105C58.8677 28.3701 58.6527 28.3442 58.4006 28.3442C56.9221 28.3442 56.5472 29.6466 56.5472 31.1058V31.1656C56.5472 31.4161 56.7508 31.6197 57.0013 31.6197H58.4023C58.6527 31.6197 58.8563 31.8233 58.8563 32.0737V32.4874C58.8563 32.7379 58.6527 32.9415 58.4023 32.9415H57.0013C56.7508 32.9415 56.5472 33.1451 56.5472 33.3955V40.7124C56.5472 40.9629 56.3436 41.1665 56.0931 41.1665H55.2852C55.0347 41.1648 54.8311 40.9629 54.8311 40.7124Z" fill="white"/>
<path d="M61.0493 29.7631V30.9831C61.0493 31.3483 61.345 31.644 61.7102 31.644H62.8736C63.2388 31.644 63.5346 31.9397 63.5346 32.3049C63.5346 32.6701 63.2388 32.9658 62.8736 32.9658H61.7102C61.345 32.9658 61.0493 33.2615 61.0493 33.6267V38.1141C61.0493 39.297 61.3854 39.9676 62.3517 39.9676C62.4729 39.9676 62.5844 39.9627 62.6894 39.9563C63.0595 39.9304 63.3794 40.2051 63.4021 40.5752L63.4053 40.6188C63.4263 40.9533 63.1936 41.2506 62.8639 41.3088C62.5892 41.3573 62.2645 41.388 61.8993 41.388C61.0897 41.388 60.4401 41.131 60.0248 40.6576C59.5319 40.1453 59.3542 39.297 59.3542 38.1723V33.6267C59.3542 33.2615 59.0585 32.9658 58.6933 32.9658H58.5349C58.1697 32.9658 57.874 32.6701 57.874 32.3049C57.874 31.9397 58.1697 31.644 58.5349 31.644H58.6933C59.0585 31.644 59.3542 31.3483 59.3542 30.9831V29.8633C59.3542 29.5643 59.5546 29.3026 59.8438 29.225L60.2187 29.1248C60.6372 29.0133 61.0493 29.33 61.0493 29.7631Z" fill="white"/>
<path d="M38.9948 44.8863C38.9948 43.9943 39.6751 43.2477 40.5638 43.1718C41.215 43.1152 41.9115 43.0813 42.6435 43.0813C45.1094 43.0813 46.8643 43.6533 48.0277 44.7376C49.2106 45.8219 49.9006 47.3602 49.9006 49.511C49.9006 51.6812 49.23 53.4554 47.9873 54.6787C46.7447 55.9213 44.6941 56.5919 42.1103 56.5919C41.5819 56.5919 41.0906 56.5806 40.6333 56.5612C39.7155 56.5208 38.9932 55.7614 38.9932 54.8419V44.8863H38.9948ZM40.7109 53.4894C40.7109 54.4379 41.4784 55.2103 42.427 55.2103C42.4334 55.2103 42.4399 55.2103 42.4464 55.2103C46.1145 55.2103 48.1069 53.1597 48.1069 49.5692C48.1263 46.4327 46.352 44.4419 42.7227 44.4419C42.6096 44.4419 42.4981 44.4435 42.3914 44.4451C41.4558 44.4661 40.7109 45.2305 40.7109 46.1661V53.4894Z" fill="white"/>
<path d="M52.6809 51.0995C52.285 51.0995 51.9795 51.4566 52.0474 51.8476C52.3625 53.6542 53.715 54.4137 55.2534 54.4137C56.1163 54.4137 56.74 54.3087 57.2603 54.1535C57.611 54.0485 57.9778 54.2618 58.0635 54.6189C58.141 54.9453 57.952 55.275 57.6336 55.3784C57.0115 55.5804 56.1454 55.7549 55.0175 55.7549C52.0781 55.7549 50.3232 53.8223 50.3232 50.9427C50.3232 48.0632 52.02 45.7944 54.8009 45.7944C57.9164 45.7944 58.7454 48.5366 58.7454 50.2915C58.7454 50.3594 58.7438 50.424 58.7421 50.4854C58.7292 50.8296 58.4464 51.0995 58.1022 51.0995H52.6809ZM56.4572 49.8568C56.8047 49.8568 57.0891 49.5789 57.0988 49.2315C57.1133 48.6708 56.9549 48.5544 55.4489 48.5544C55.087 48.5544 54.7331 48.5593 54.3986 48.5754C53.5712 48.6174 53.6084 49.8552 54.4374 49.8552H56.4572V49.8568Z" fill="white"/>
<path d="M74.3439 51.9171C73.948 51.9171 73.6426 52.2742 73.7105 52.6653C74.0256 54.4719 75.3781 55.2313 76.9165 55.2313C77.7794 55.2313 78.4031 55.1263 78.9234 54.9712C79.2741 54.8661 79.6409 55.0794 79.7265 55.4366C79.8041 55.763 79.615 56.0926 79.2967 56.196C78.6746 56.398 77.8085 56.5725 76.6805 56.5725C73.7412 56.5725 71.9863 54.6399 71.9863 51.7604C71.9863 48.8808 73.683 46.6121 76.464 46.6121C79.5795 46.6121 80.4085 49.3543 80.4085 51.1091C80.4085 51.177 80.4068 51.2416 80.4052 51.303C80.3923 51.6472 80.1095 51.9171 79.7653 51.9171H74.3439ZM78.1203 50.6745C78.4678 50.6745 78.7521 50.3965 78.7618 50.0491C78.7764 49.4884 78.618 49.372 77.112 49.372C76.75 49.372 76.3962 49.3769 76.0617 49.393C75.2343 49.4351 75.2715 50.6728 76.1004 50.6728H78.1203V50.6745Z" fill="white"/>
<path d="M60.3892 42.4705C60.8692 42.4705 61.257 42.8583 61.257 43.3382V55.6062C61.257 56.0861 60.8692 56.4739 60.3892 56.4739C59.9093 56.4739 59.5215 56.0861 59.5215 55.6062V43.3382C59.5215 42.8583 59.9093 42.4705 60.3892 42.4705Z" fill="white"/>
<path d="M64.1726 43.9007C64.192 44.4921 63.7589 44.9656 63.0689 44.9656C62.4581 44.9656 62.0234 44.4921 62.0234 43.9007C62.0234 43.2899 62.4775 42.8164 63.1077 42.8164C63.7589 42.8148 64.1726 43.2883 64.1726 43.9007ZM62.24 55.2605V47.4508C62.24 46.9709 62.6278 46.5831 63.1077 46.5831C63.5876 46.5831 63.9755 46.9709 63.9755 47.4508V55.2605C63.9755 55.7405 63.5876 56.1283 63.1077 56.1283C62.6294 56.1283 62.24 55.7405 62.24 55.2605Z" fill="white"/>
<path d="M63.1463 47.6884L64.4601 51.447C64.5554 51.7184 64.7849 51.9221 65.066 51.9851C69.2755 52.9272 69.5211 53.6899 69.7118 54.4526H69.7716C69.9881 53.664 70.2644 52.8754 70.5795 52.0077L72.2391 47.2036C72.3554 46.8675 72.6705 46.6429 73.026 46.6429C73.6126 46.6429 74.0149 47.2343 73.8016 47.7805L70.7088 55.6613C70.5844 55.9796 70.2757 56.1897 69.9332 56.1897H69.4177C69.0719 56.1897 68.7616 55.9764 68.6388 55.6532L65.407 47.1535C65.289 46.8449 64.9998 46.6332 64.6685 46.617L63.9704 46.5831C63.3823 46.554 62.9508 47.1309 63.1463 47.6884Z" fill="white"/>
<path d="M81.0482 49.9055C81.0482 48.9974 81.0352 48.1926 80.9997 47.4477C80.9851 47.1649 81.2114 46.9274 81.4942 46.9274H82.008C82.2763 46.9274 82.496 47.1407 82.5041 47.4073L82.5477 48.8002H82.6269C83.06 47.5188 84.1055 46.7092 85.2705 46.7092C85.2722 46.7092 85.2738 46.7092 85.277 46.7092C85.5469 46.7092 85.7634 46.9355 85.7634 47.2053V47.8517C85.7634 48.128 85.5372 48.3542 85.2608 48.3478C85.2318 48.3478 85.2027 48.3461 85.172 48.3461C83.9487 48.3461 83.081 49.2737 82.8451 50.5745C82.8063 50.8104 82.7659 51.0867 82.7659 51.3825V55.9749C82.7659 56.2496 82.5445 56.471 82.2698 56.471H81.5459C81.2712 56.471 81.0498 56.2496 81.0498 55.9749V49.9055H81.0482Z" fill="white"/>
<path d="M86.7281 46.5813C87.0578 46.5813 87.3535 46.7865 87.4682 47.0968L89.3685 52.2224C89.5851 52.8543 89.8226 53.6024 89.9793 54.1745H90.0181C90.1959 53.6024 90.393 52.872 90.6289 52.182L92.3402 47.1178C92.4485 46.7978 92.749 46.5813 93.0884 46.5813H93.2096C93.7622 46.5813 94.1452 47.1356 93.9464 47.6526L91.7536 53.3859C90.511 56.6597 89.6626 58.3371 88.4798 59.3615C88.0338 59.7558 87.5878 60.0241 87.2032 60.2018C86.7669 60.4022 86.2547 60.1679 86.1189 59.7073C86.0107 59.3438 86.1739 58.9495 86.5148 58.7814C86.8154 58.6312 87.1353 58.4324 87.4359 58.1787C87.9094 57.8038 88.5008 57.1332 88.8951 56.2461C88.9743 56.0683 89.0324 55.931 89.0324 55.8324C89.0324 55.7338 88.9936 55.5965 88.9145 55.3783L85.8184 47.6656C85.6099 47.1469 85.9929 46.5813 86.5504 46.5813H86.7281Z" fill="white"/>
<path d="M43.8639 5.08795C44.1095 4.22182 44.7332 3.47042 45.538 3.06644C45.7965 2.93717 46.0858 2.84022 46.3734 2.88062C46.968 2.96626 47.3397 3.66272 47.212 4.24929C47.0844 4.83587 46.5786 5.28186 46.0179 5.50162C45.4588 5.71977 44.8447 5.74886 44.2452 5.77633C43.7815 5.66968 43.6942 4.89727 44.1224 4.68882" fill="white"/>
<path d="M50.1617 2.21661C50.4073 1.35048 51.0311 0.599084 51.8358 0.195106C52.0944 0.0658331 52.3836 -0.0311206 52.6712 0.00927721C53.2659 0.0949205 53.6376 0.791378 53.5099 1.37795C53.3822 1.96453 52.8765 2.41052 52.3157 2.63029C51.7566 2.84843 51.1426 2.87752 50.5431 2.90499C50.0793 2.79834 49.9921 2.02593 50.4203 1.81748" fill="white"/>
<path d="M50.7379 6.54059C50.9835 5.67446 51.6073 4.92306 52.412 4.51909C52.6705 4.38981 52.9598 4.29285 53.2474 4.33325C53.8421 4.41889 54.2137 5.11535 54.0861 5.70193C53.9584 6.2885 53.4526 6.7345 52.8919 6.95426C52.3328 7.17241 51.7188 7.2015 51.1193 7.22897C50.6555 7.12232 50.5682 6.34991 50.9964 6.14146" fill="white"/>
</svg>
